<?xml version="1.0" standalone="no"?><!DOCTYPE svg PUBLIC "-//W3C//DTD SVG 1.1//EN" "http://www.w3.org/Graphics/SVG/1.1/DTD/svg11.dtd"><svg t="1640015888294" class="icon" viewBox="0 0 1024 1024" version="1.1" xmlns="http://www.w3.org/2000/svg" p-id="14706" xmlns:xlink="http://www.w3.org/1999/xlink" width="200" height="200"><defs><style type="text/css"></style></defs><path d="M972.8 53.169231C905.846154-15.753846 531.692308 196.923077 303.261538 563.2c-9.846154 17.723077-3.938462 39.384615 13.784616 47.261538 51.2 23.630769 92.553846 66.953846 114.215384 120.123077 7.876923 19.692308 29.538462 25.6 47.261539 13.784616 354.461538-234.338462 561.230769-622.276923 494.276923-691.2zM234.338462 693.169231C204.8 693.169231 177.230769 708.923077 157.538462 728.615385h-1.969231c-9.846154 0-19.692308 15.753846-27.569231 29.538461-31.507692 53.169231-37.415385 116.184615-84.676923 185.107692-7.876923 11.815385-5.907692 29.538462 7.876923 33.476924 66.953846 21.661538 187.076923 1.969231 246.153846-41.353847v1.969231c19.692308-3.938462 13.784615-11.815385 19.692308-11.815384 21.661538-39.384615 39.384615-59.076923 39.384615-96.492308-1.969231-72.861538-53.169231-135.876923-122.092307-135.876923z" p-id="14707"></path></svg>