<?xml version="1.0" standalone="no"?><!DOCTYPE svg PUBLIC "-//W3C//DTD SVG 1.1//EN" "http://www.w3.org/Graphics/SVG/1.1/DTD/svg11.dtd"><svg t="1640403764640" class="icon" viewBox="0 0 1024 1024" version="1.1" xmlns="http://www.w3.org/2000/svg" p-id="1701" xmlns:xlink="http://www.w3.org/1999/xlink" width="200" height="200"><defs><style type="text/css"></style></defs><path d="M261 796v-64a4 4 0 0 0-4-4H137a4 4 0 0 0-4 4v64a4 4 0 0 0 4 4h120a4 4 0 0 0 4-4zM137 360h120a4 4 0 0 0 4-4v-64a4 4 0 0 0-4-4H137a4 4 0 0 0-4 4v64a4 4 0 0 0 4 4z m660-232H237a40 40 0 0 0-40 40v96a4 4 0 0 0 4 4h56a23.9 23.9 0 0 1 24 24v64a23.9 23.9 0 0 1-24 24h-56a4 4 0 0 0-4 4v320a4 4 0 0 0 4 4h56a23.9 23.9 0 0 1 24 24v64a23.9 23.9 0 0 1-24 24h-56a4 4 0 0 0-4 4v96a40 40 0 0 0 40 40h560a40 40 0 0 0 40-40V168a40 40 0 0 0-40-40z m-88 700a4 4 0 0 1-4 4h-56a4 4 0 0 1-4-4V260a4 4 0 0 1 4-4h56a4 4 0 0 1 4 4z" p-id="1702"></path></svg>