<?xml version="1.0" standalone="no"?><!DOCTYPE svg PUBLIC "-//W3C//DTD SVG 1.1//EN" "http://www.w3.org/Graphics/SVG/1.1/DTD/svg11.dtd"><svg t="1640446380509" class="icon" viewBox="0 0 1024 1024" version="1.1" xmlns="http://www.w3.org/2000/svg" p-id="5130" xmlns:xlink="http://www.w3.org/1999/xlink" width="200" height="200"><defs><style type="text/css"></style></defs><path d="M734.994 805.374c-18.952-2.988-19.384-54.654-19.384-54.654s55.688-54.656 67.824-128.152c32.652 0 52.814-78.138 20.164-105.628 1.362-28.94 41.968-227.176-163.598-227.176-205.564 0-164.958 198.236-163.598 227.176-32.654 27.49-12.488 105.628 20.162 105.628 12.134 73.496 67.826 128.152 67.826 128.152s-0.432 51.666-19.384 54.654C483.958 815.006 256 914.69 256 1024l384 0 384 0C1024 914.69 796.042 815.006 734.994 805.374zM344.054 822.81c44.094-27.15 97.626-52.308 141.538-67.424-15.752-22.432-33.294-52.936-44.33-89.062-15.406-12.566-27.944-30.532-35.998-52.602-8.066-22.104-11.122-46.852-8.608-69.684 1.804-16.392 6.478-31.666 13.65-45.088-4.35-46.586-7.414-138.034 52.448-204.732 23.214-25.866 52.556-44.46 87.7-55.686C544.18 173.772 511.294 97.762 384 97.762c-205.564 0-164.958 198.236-163.598 227.176-32.654 27.49-12.488 105.628 20.162 105.628 12.134 73.496 67.826 128.152 67.826 128.152s-0.432 51.666-19.384 54.654C227.958 623.006 0 722.69 0 832l329.596 0C334.306 828.926 339.102 825.86 344.054 822.81z" p-id="5131"></path></svg>