<?xml version="1.0" standalone="no"?><!DOCTYPE svg PUBLIC "-//W3C//DTD SVG 1.1//EN" "http://www.w3.org/Graphics/SVG/1.1/DTD/svg11.dtd"><svg t="1640496585073" class="icon" viewBox="0 0 1024 1024" version="1.1" xmlns="http://www.w3.org/2000/svg" p-id="3554" xmlns:xlink="http://www.w3.org/1999/xlink" width="200" height="200"><defs><style type="text/css"></style></defs><path d="M814.134857 889.782857l29.586286-626.56h42.843428c17.572571 0 31.725714-14.573714 31.725715-32.146286s-14.153143-32.585143-31.725715-32.585142H699.282286V134.217143c0-61.293714-41.563429-101.138286-107.574857-101.138286h-160.274286c-66.011429 0-107.154286 39.862857-107.154286 101.12v64.292572H137.874286c-17.133714 0-32.146286 14.994286-32.146286 32.585142 0 17.554286 14.994286 32.146286 32.146286 32.146286h42.861714L210.285714 890.221714c2.998857 61.714286 43.702857 100.699429 105.435429 100.699429h392.996571c61.275429 0 102.418286-39.424 105.417143-101.12zM392.850286 138.496c0-24.429714 18.011429-41.563429 43.721143-41.563429h150.436571c26.148571 0 44.141714 17.133714 44.141714 41.563429v59.995429H392.850286z m-70.710857 788.150857c-24.868571 0-43.282286-18.870857-44.562286-43.702857l-29.988572-619.739429h527.542858l-28.269715 619.721143c-1.28 25.289143-19.291429 43.702857-44.580571 43.702857z m317.147428-75.428571c14.134857 0 24.868571-11.574857 25.289143-27.867429l12.854857-452.571428c0.420571-16.274286-10.715429-28.288-25.289143-28.288-13.275429 0-24.429714 12.434286-24.868571 27.867428l-12.836572 452.992c-0.438857 15.433143 10.276571 27.867429 24.850286 27.867429z m-254.134857 0c14.573714 0 25.270857-12.434286 24.850286-27.867429l-12.854857-452.992c-0.438857-15.433143-11.995429-27.867429-25.289143-27.867428-14.573714 0-25.289143 12.013714-24.868572 28.288l13.293715 452.571428c0.438857 16.292571 10.715429 27.867429 24.868571 27.867429z m152.996571-27.867429V370.358857c0-15.433143-11.574857-27.867429-25.728-27.867428-14.134857 0-26.148571 12.434286-26.148571 27.867428v452.992c0 15.433143 12.013714 27.867429 26.148571 27.867429 13.714286 0 25.728-12.434286 25.728-27.867429z" p-id="3555"></path></svg>