<?xml version="1.0" standalone="no"?><!DOCTYPE svg PUBLIC "-//W3C//DTD SVG 1.1//EN" "http://www.w3.org/Graphics/SVG/1.1/DTD/svg11.dtd"><svg t="1640180843983" class="icon" viewBox="0 0 1024 1024" version="1.1" xmlns="http://www.w3.org/2000/svg" p-id="3860" xmlns:xlink="http://www.w3.org/1999/xlink" width="200" height="200"><defs><style type="text/css"></style></defs><path d="M771.5 490h-84v-68h43z" fill="#B3BAC3" p-id="3861"></path><path d="M887.5 577h-8v-48.4c0-3-0.8-6-2.4-8.6L774.4 350c-3-5-8.4-8-14.3-8H646.5V232c0-8.8-7.2-16-16-16h-470c-8.8 0-16 7.2-16 16v345h-8c-8.8 0-16 7.2-16 16v127c0 8.8 7.2 16 16 16h85.7c5.2 40.6 39.8 72 81.8 72s76.7-31.4 81.8-72h278.4c5.2 40.6 39.8 72 81.8 72s76.7-31.4 81.8-72h59.7c8.8 0 16-7.2 16-16V593c0-8.8-7.2-16-16-16zM746.9 382l92.6 153.1V577h-193V382h100.4zM184.5 256h422v321h-422V256zM304 768c-23.4 0-42.5-19.1-42.5-42.5S280.6 683 304 683s42.5 19.1 42.5 42.5S327.4 768 304 768z m442 0c-23.4 0-42.5-19.1-42.5-42.5S722.6 683 746 683s42.5 19.1 42.5 42.5S769.4 768 746 768z m117.5-72H823c-11.9-31-41.9-53-77-53s-65.2 22-77 53H381c-11.9-31-41.9-53-77-53s-65.2 22-77 53h-66.5v-79h703v79z" fill="#3C3F44" p-id="3862"></path><path d="M254.5 296h40v240h-40zM334.5 296h40v240h-40zM414.5 296h40v240h-40zM495.5 296h40v240h-40z" fill="#B3BAC3" p-id="3863"></path></svg>