<?xml version="1.0" standalone="no"?><!DOCTYPE svg PUBLIC "-//W3C//DTD SVG 1.1//EN" "http://www.w3.org/Graphics/SVG/1.1/DTD/svg11.dtd"><svg t="1640440472192" class="icon" viewBox="0 0 1024 1024" version="1.1" xmlns="http://www.w3.org/2000/svg" p-id="2179" xmlns:xlink="http://www.w3.org/1999/xlink" width="200" height="200"><defs><style type="text/css"></style></defs><path d="M854 671.808a60 60 0 0 1-60 60 60 60 0 1 1 60-60z m169.952 0.16v11.976c0 63.504-35.24 136.368-104.744 216.592-49.2 56.792-97.904 96.64-99.96 98.304l-25.248 20.56-25.248-20.56c-2.048-1.672-50.76-41.512-99.96-98.304-69.504-80.224-104.744-153.088-104.744-216.592v-11.984c0-126.8 103.152-229.96 229.952-229.96s229.952 103.168 229.952 229.96z m-80 0c0-82.696-67.264-149.968-149.952-149.968s-149.952 67.28-149.952 149.96v11.984c0 77.176 92.696 178.384 149.952 230.872 57.248-52.48 149.952-153.696 149.952-230.872v-11.984zM913.728 0H110.216L0 368.144v5.856c0 35.792 14.12 69.208 39.752 94.096a133.584 133.584 0 0 0 42.248 27.704V904c0 66.168 53.832 120 120 120h474.744c-19.616-18.496-44.032-42.928-68.416-71.08-2.584-2.976-5.12-5.952-7.624-8.92H202c-22.056 0-40-17.944-40-40v-81.76h357.184c-13.28-27.232-22.8-53.92-28.552-80H162V503.024a133.8 133.8 0 0 0 66-35.624 133.528 133.528 0 0 0 94 38.592c36.88 0 70.336-14.976 94.584-39.168a135.568 135.568 0 0 0 116.84 37.464 312.16 312.16 0 0 1 120.08-108.576A53.688 53.688 0 0 1 648 372v-42H568v40c0 30.88-25.12 56-56 56s-56-25.12-56-56v-40H376v42a54.064 54.064 0 0 1-54 54 54.064 54.064 0 0 1-54-54v-42h-80v42a54.064 54.064 0 0 1-54 54c-28.504 0-51.2-20.24-53.76-46.944L169.784 80h684.488l89.496 297.104a53.616 53.616 0 0 1-6.12 20.264 311.36 311.36 0 0 1 65.6 46.136A133.128 133.128 0 0 0 1024 372v-5.888L913.728 0z" p-id="2180"></path></svg>