<?xml version="1.0" standalone="no"?><!DOCTYPE svg PUBLIC "-//W3C//DTD SVG 1.1//EN" "http://www.w3.org/Graphics/SVG/1.1/DTD/svg11.dtd"><svg t="1640448282329" class="icon" viewBox="0 0 1024 1024" version="1.1" xmlns="http://www.w3.org/2000/svg" p-id="10614" xmlns:xlink="http://www.w3.org/1999/xlink" width="200" height="200"><defs><style type="text/css"></style></defs><path d="M426.666667 256a85.333333 85.333333 0 1 0-170.666667 0 85.333333 85.333333 0 0 0 170.666667 0zM170.666667 256a170.666667 170.666667 0 1 1 341.333333 0 170.666667 170.666667 0 0 1-341.333333 0z m469.333333 298.666667v-128h85.333333v42.666666h85.333334v85.333334h-170.666667z m298.666667-85.333334h85.333333v384H512v-384h85.333333v298.666667h341.333334v-213.333333h-85.333334v-128h85.333334v42.666666zM256.256 597.333333c-29.226667 0-62.933333 24.32-72.106667 51.84L128 810.666667H42.666667l60.544-188.501334C123.946667 559.872 190.250667 512 256.256 512H469.333333v85.333333H256.256zM853.333333 640v85.333333h-85.333333v-85.333333h85.333333z" p-id="10615"></path></svg>